#!OML:ASF H:\Terrain\Patient Classification 1\Walking\liu\liu.ASF
:FULLY-SPECIFIED
:DEGREES
48
root 9.03655 16.3682 -22.3074 7.20769 -4.26986 2.82085
lowerback -2.768 0.795812 -5.57892
upperback -0.0486439 1.21679 1.51766
thorax 1.35432 0.56815 4.74921
lowerneck -20.3262 -3.76838 -11.3911
upperneck 18.3844 -4.38414 11.634
head 9.69373 -1.54853 5.37844
rclavicle -1.07344e-014 -2.38542e-015
rhumerus -32.814 21.5075 -89.2995
rradius 35.1988
rwrist -17.0241
rhand -34.9197 -22.6762
rfingers 7.12502
rthumb -8.06726 -52.5023
lclavicle -1.07344e-014 -2.38542e-015
lhumerus -34.9345 -3.4349 87.5651
lradius 20.1282
lwrist -0.749409
lhand -17.4196 -28.454
lfingers 7.12502
lthumb 8.83047 1.34129
rfemur -25.811 -2.38663 19.9375
rtibia 67.8618
rfoot -13.8712 -9.21332
rtoes -13.2764
lfemur -21.6535 1.9676 -26.7561
ltibia 31.6266
lfoot -16.4161 5.47908
ltoes -2.64309
49
root 9.04213 16.3681 -22.092 7.18752 -4.02035 2.69133
lowerback -2.73838 0.623238 -5.36345
upperback -0.0583954 0.976779 1.59113
thorax 1.3594 0.449322 4.69482
lowerneck -20.3944 -3.66281 -11.7064
upperneck 18.6173 -4.26858 12.1407
head 9.79264 -1.46065 5.64558
rclavicle -1.03368e-014 -1.59028e-015
rhumerus -33.6775 21.4384 -89.5687
rradius 34.9185
rwrist -16.8907
rhand -35.3523 -22.9498
rfingers 7.12502
rthumb -8.4848 -52.7593
lclavicle -1.03368e-014 -1.59028e-015
lhumerus -34.1087 -5.66196 88.5991
lradius 21.058
lwrist 0.768736
lhand -17.7313 -28.1111
lfingers 7.12502
lthumb 8.52965 1.6966
rfemur -27.2644 -2.30896 20.3642
rtibia 66.7484
rfoot -14.7146 -8.84129
rtoes -12.8467
lfemur -20.6186 1.40499 -26.6115
ltibia 31.3479
lfoot -16.8802 5.76959
ltoes -3.11466
50
root 9.04754 16.3597 -21.8705 7.13117 -3.65877 2.6069
lowerback -2.66618 0.352659 -5.254
upperback -0.123553 0.605701 1.71328
thorax 1.2962 0.267435 4.7456
lowerneck -20.5431 -3.50584 -11.9995
upperneck 19.0471 -4.05776 12.489
head 9.95664 -1.34297 5.87481
rclavicle 6.26172e-015 2.38542e-015
rhumerus -34.4617 21.5215 -89.824
rradius 34.5244
rwrist -16.8603
rhand -35.4599 -23.4568
rfingers 7.12502
rthumb -8.58857 -53.2621
lclavicle 6.26172e-015 2.38542e-015
lhumerus -33.4843 -7.57539 89.484
lradius 22.0972
lwrist 2.06504
lhand -18.0813 -27.8591
lfingers 7.12502
lthumb 8.19182 1.96214
rfemur -28.6005 -2.39873 20.7651
rtibia 65.4783
rfoot -15.4303 -8.77642
rtoes -13.4957
lfemur -19.557 0.891286 -26.5122
ltibia 31.084
lfoot -16.9896 6.01359
ltoes -4.80531
51
root 9.05192 16.3592 -21.6466 6.94889 -3.35862 2.67387
lowerback -2.49753 0.104709 -5.30489
upperback -0.124334 0.266676 1.77836
thorax 1.24124 0.0989296 4.82919
lowerneck -20.3122 -3.36995 -12.3484
upperneck 18.9041 -3.85744 12.8511
head 9.85015 -1.24283 6.09253
rclavicle -1.26725e-014 7.15625e-015
rhumerus -35.269 21.0639 -89.9456
rradius 34.1019
rwrist -16.4055
rhand -34.7929 -22.7864
rfingers 7.12502
rthumb -7.94487 -52.617
lclavicle -1.26725e-014 7.15625e-015
lhumerus -32.6829 -9.18113 90.0459
lradius 22.9776
lwrist 2.84735
lhand -18.2995 -28.2251
lfingers 7.12502
lthumb 7.98131 1.60422
rfemur -29.7188 -2.5597 20.9722
rtibia 64.0521
rfoot -16.1865 -8.80003
rtoes -13.7112
lfemur -18.242 0.412383 -26.5975
ltibia 30.7735
lfoot -17.6388 6.17223
ltoes -4.28248
52
root 9.05604 16.3663 -21.426 6.80311 -3.10409 2.7529
lowerback -2.29242 -0.134218 -5.31156
upperback -0.119717 -0.0620582 1.73555
thorax 1.17122 -0.0635801 4.77648
lowerneck -20.066 -3.16504 -12.3432
upperneck 18.607 -3.65203 13.1778
head 9.6774 -1.11797 6.22859
rclavicle -3.8763e-015 -2.8625e-014
rhumerus -36.518 20.7055 -90.2281
rradius 34.2486
rwrist -16.2545
rhand -34.0627 -24.0528
rfingers 7.12502
rthumb -7.24005 -53.909
lclavicle -3.8763e-015 -2.8625e-014
lhumerus -31.9571 -10.9345 90.2891
lradius 24.0582
lwrist 3.50331
lhand -17.9415 -28.7421
lfingers 7.12502
lthumb 8.32678 1.07375
rfemur -30.845 -2.52313 21.0303
rtibia 62.5356
rfoot -16.8326 -8.52951
rtoes -14.8811
lfemur -16.99 0.136704 -26.7476
ltibia 30.4985
lfoot -18.6274 6.2304
ltoes -4.49298
53
root 9.05709 16.3672 -21.2109 6.878 -2.87544 2.71449
lowerback -2.21718 -0.365342 -5.28343
upperback -0.213125 -0.377047 1.77377
thorax 1.07113 -0.216013 4.79011
lowerneck -20.3434 -3.04209 -11.8915
upperneck 18.9634 -3.52019 12.7544
head 9.81625 -1.06245 6.02844
rclavicle -2.48481e-016 2.06736e-014
rhumerus -38.1155 21.1347 -90.6389
rradius 34.7763
rwrist -16.9269
rhand -34.0434 -27.4398
rfingers 7.12502
rthumb -7.22143 -57.2966
lclavicle -2.48481e-016 2.06736e-014
lhumerus -31.3536 -12.3321 90.424
lradius 25.2538
lwrist 3.78934
lhand -16.7038 -28.077
lfingers 7.12502
lthumb 9.52118 1.68793
rfemur -32.139 -2.37575 21.2301
rtibia 60.8514
rfoot -17.0781 -8.3666
rtoes -18.0376
lfemur -15.9601 -0.0201725 -26.7499
ltibia 29.9805
lfoot -19.1798 6.24082
ltoes -6.17119
54
root 9.05739 16.3397 -20.9977 6.82936 -2.52401 2.79344
lowerback -2.073 -0.632451 -5.44995
upperback -0.22979 -0.738628 1.88176
thorax 1.02081 -0.39619 4.98658
lowerneck -20.7649 -2.99474 -11.6173
upperneck 19.4215 -3.38557 12.1465
head 10.0189 -1.03693 5.79631
rclavicle -7.40473e-015 -9.54166e-015
rhumerus -39.2251 21.4094 -90.8471
rradius 34.8534
rwrist -17.4466
rhand -34.7166 -27.5612
rfingers 7.12502
rthumb -7.87125 -57.3947
lclavicle -7.40473e-015 -9.54166e-015
lhumerus -30.6024 -13.6566 90.6895
lradius 26.3694
lwrist 4.35471
lhand -15.9605 -27.1164
lfingers 7.12502
lthumb 10.2383 2.61441
rfemur -33.0758 -2.66134 21.4819
rtibia 59.0279
rfoot -17.4604 -8.89138
rtoes -22.3261
lfemur -14.7391 -0.459375 -26.8357
ltibia 29.2012
lfoot -19.313 6.29617
ltoes -4.1375
55
root 9.0576 16.3495 -20.7643 6.52717 -1.92971 3.01138
lowerback -1.82548 -0.978093 -5.69492
upperback -0.112787 -1.20675 1.92221
thorax 1.06819 -0.63643 5.15504
lowerneck -21.0146 -2.86901 -11.4358
upperneck 19.6461 -3.17356 11.8017
head 10.1056 -0.958469 5.6787
rclavicle -1.21259e-014 -2.8625e-014
rhumerus -39.9835 21.1451 -90.9344
rradius 34.6284
rwrist -17.6801
rhand -35.5568 -25.2193
rfingers 7.12502
rthumb -8.68215 -55.0208
lclavicle -1.21259e-014 -2.8625e-014
lhumerus -29.6524 -15.3325 90.9327
lradius 27.3541
lwrist 6.03317
lhand -15.7715 -26.9696
lfingers 7.12502
lthumb 10.4206 2.75211
rfemur -33.9005 -2.58034 21.1449
rtibia 56.8144
rfoot -17.8616 -8.89484
rtoes -21.7425
lfemur -12.9394 -0.996514 -27.0554
ltibia 28.0366
lfoot -19.4236 6.24587
ltoes -2.47701
56
root 9.06049 16.3658 -20.5238 6.48147 -1.50121 3.10053
lowerback -1.96897 -1.23827 -5.65061
upperback -0.0262763 -1.54501 1.86266
thorax 1.2799 -0.814301 5.05219
lowerneck -21.0331 -2.76612 -11.3039
upperneck 19.7285 -3.06899 11.7708
head 10.1212 -0.903499 5.66328
rclavicle 6.31141e-015 2.54444e-014
rhumerus -40.7399 20.6778 -91.0675
rradius 34.4218
rwrist -17.8254
rhand -36.0374 -24.3028
rfingers 7.12502
rthumb -9.14594 -54.0845
lclavicle 6.31141e-015 2.54444e-014
lhumerus -28.5369 -17.0277 90.8636
lradius 28.2142
lwrist 7.61961
lhand -15.3104 -26.9864
lfingers 7.12502
lthumb 10.8654 2.71246
rfemur -34.7312 -2.52925 20.9615
rtibia 54.4619
rfoot -18.0966 -8.14928
rtoes -21.7949
lfemur -11.1898 -1.25472 -27.1988
ltibia 26.6113
lfoot -19.7355 6.30521
ltoes -4.18826
